# xmcd
#
# Track frame offsets:
#	150
#	10211
#	21326
#	35089
#	45020
#	57326
#	69996
#	81632
#	94700
#	104874
#	120230
#	130943
#
# Disc length: 1886 seconds
#
# Revision: 1
# Processed by: cddbd v1.5.2PL0 Copyright (c) Steve Scherf et al.
# Submitted via: audiograbber 1.83.01
#
DISCID=9d075c0c
DTITLE=Porter Wagoner - Soul Of A Convict and Other Great Prison Songs
DYEAR=1966
DGENRE=Country
TTITLE0=Boston Jail
TTITLE1=The Convict And The Rose
TTITLE2=I Relived My Life Today
TTITLE3=I'm Just Here To Get My Baby Out Of Jail
TTITLE4=Let Me In
TTITLE5=The Big River Train
TTITLE6=The Snakes Crawl At Night
TTITLE7=They're All Going Home But One
TTITLE8=Folsom Prison
TTITLE9=Soul Of A Convict
TTITLE10=Green, Green Grass Of Home
TTITLE11=Lonesome Whistle
EXTD=
EXTT0=
EXTT1=
EXTT2=
EXTT3=
EXTT4=
EXTT5=
EXTT6=
EXTT7=
EXTT8=
EXTT9=
EXTT10=
EXTT11=
PLAYORDER=
